<svg xmlns="http://www.w3.org/2000/svg" viewBox="0 0 400 400"><path fill-rule="evenodd" clip-rule="evenodd" fill="#46af85" d="M288.379 184.798l-20.451 3.558-2.39 14.162 8.74 21.75 28.311-5.326 7.566-4.956-7.55-.219-4.764-17.982z"/><path fill-rule="evenodd" clip-rule="evenodd" fill="#308b69" d="M297.841 195.785l-32.303 6.733-5.256-23.41 32.564-4.629z"/><path fill-rule="evenodd" clip-rule="evenodd" fill="#cea19c" d="M312.277 239.119l-2.424-11.125-33.016 5.975 2.908 5.634z"/><path fill-rule="evenodd" clip-rule="evenodd" fill="#eecec9" d="M249.291 95.273l-20.147 29.582-25.396 5.989 23.743-61.733 5.233-17.915 9.22-.254-6.121 20.333z"/><path fill-rule="evenodd" clip-rule="evenodd" fill="#cea19c" d="M240.974 102.102l-9.353-31.753L250.247 95.6z"/><path fill-rule="evenodd" clip-rule="evenodd" fill="#46af85" d="M193.216 221.671l14.974 6.709 10.841-2.32-7.799-34.195-14.917-8.397-22.154-.569 11.086 19.893 1.775 8.552z"/><path fill-rule="evenodd" clip-rule="evenodd" fill="#308b69" d="M250.512 183.317l-22.189.668-20.649 8.26 2.612 20.579 9.194 6.651 21.2-9.453 19.796 6.322 7.452-20.358z"/><path fill-rule="evenodd" clip-rule="evenodd" fill="#3f3229" d="M275.806 177.393l17.04-2.914-27.308 28.039-15.026-19.201 1.644-15.83z"/><path opacity=".1" fill-rule="evenodd" clip-rule="evenodd" fill="#2c2b2b" d="M302.725 381.185l-87.102-16.576-72.138 11.216-37.509-2.492-62.528 6.968L108.238 400l35.938-15.741 75.304 11.464z"/><path fill-rule="evenodd" clip-rule="evenodd" fill="#699b47" d="M239.075 380.798l5.709 1.004 23.461.645 5.894-1.562-5.419-20.682-9.036-4.647-12.996 4.177z"/><path fill-rule="evenodd" clip-rule="evenodd" fill="#424242" d="M268.72 360.203l-22.032-.47-3.722-11.306 14.416-6.295 10.725 4.655z"/><path fill-rule="evenodd" clip-rule="evenodd" fill="#699b47" d="M214.154 373.406l-7.755 2.291-37.208.187-3.846-2.348 26.621-18.574 10.147-2.625 11.459 5.161z"/><path fill-rule="evenodd" clip-rule="evenodd" fill="#424242" d="M216.433 343.735l-2.861 13.763-21.606-2.536-.164-13.346 16.171-5.027z"/><path fill-rule="evenodd" clip-rule="evenodd" fill="#5e6060" d="M190.37 300.094l31.946-24.144 3.999 17.393-4.726 24.458-5.035 12.31-18.327-2.254-7.02-13.121z"/><path fill-rule="evenodd" clip-rule="evenodd" fill="#5e5f5f" d="M266.11 313.341l-4.137 14.71-20.501 2.898-7.844-12.653-7.313-24.953-4.499-19.914 25.378-4.468 16.161-5.11z"/><path fill-rule="evenodd" clip-rule="evenodd" fill="#4c4d4e" d="M263.95 274.547l-37.635 18.796-11.757-4.085-20.536-15.259 69.816-23.942z"/><path fill-rule="evenodd" clip-rule="evenodd" fill="#969697" d="M130.339 111.956l-24.718 99.591-4.332.855-3.172-2.828 25.219-95.062 4.447-4.217z"/><path fill-rule="evenodd" clip-rule="evenodd" fill="#b3b2b3" d="M147.852 110.878l-5.695-17.139-14.279-12.804-8.371 13.295.984 11.325 9.848 6.401zM98.888 109.007l5.354 4.427.634 7.813-10.975 4.004-3.938-9.85z"/><path fill-rule="evenodd" clip-rule="evenodd" fill="#cbcaca" d="M104.876 121.247l25.463-9.291-10.832-17.726-20.619 14.777z"/><path fill-rule="evenodd" clip-rule="evenodd" fill="#5e5f5f" d="M143.241 369.246l.493 13.296-38.898-5.907-34.96 11.322-.492-13.786 35.945-10.339z"/><path fill-rule="evenodd" clip-rule="evenodd" fill="#5e5f5f" d="M105.621 211.547l5.485 153.109-6.488 2.705-4.391-2.059-2.11-155.728z"/><path fill-rule="evenodd" clip-rule="evenodd" fill="#969697" d="M114.685 392.883l-3.579-28.227-10.879.646-4.746 28.074z"/><path fill-rule="evenodd" clip-rule="evenodd" fill="#46af85" d="M241.971 160.256l8.541 23.061-42.838 8.928 22.2-27.362z"/><path fill-rule="evenodd" clip-rule="evenodd" fill="#6fc5a3" d="M194.25 159.72l6.824-1.215 6.6 33.74-26.329-8.26zM235.423 151.43l5.978 10.534-33.727 30.281 16.306-43.232z"/><path fill-rule="evenodd" clip-rule="evenodd" fill="#46af85" d="M210.772 153.525l1.031 8.776-4.129 29.944-8.804-29.837 4.156-8.366z"/><path fill-rule="evenodd" clip-rule="evenodd" fill="#3f3229" d="M155.667 147.516l4.012 23.602 12.108 17.48 11.509 4.791-13.826-33.153z"/><path fill-rule="evenodd" clip-rule="evenodd" fill="#4a3b32" d="M149.438 138.669l33.858 54.72 22.522-39.536-26.542-11.684z"/><path fill-rule="evenodd" clip-rule="evenodd" fill="#3f3229" d="M205.052 123.714l1.343 14.039.863 16.007-1.44.093-56.379-15.184 26.022-6.793z"/><path fill-rule="evenodd" clip-rule="evenodd" fill="#4a3b32" d="M202.564 121.486l.368 7.838-53.493 9.345 12.81-12.161 20.145-4.848z"/><path fill-rule="evenodd" clip-rule="evenodd" fill="#5f5145" d="M239.258 131.669l-15.484 12.181.413 10.325 38.995 5.197 25.704-10.986-16.138-10.875zM292.846 174.479l-12.439-10.236-52.995-9.638 23.1 28.712z"/><path fill-rule="evenodd" clip-rule="evenodd" fill="#4a3b32" d="M288.886 148.386l3.96 26.093-65.434-19.874z"/><path fill-rule="evenodd" clip-rule="evenodd" fill="#3f3229" d="M279.108 126.508l9.778 21.878-51.072-13.62-8.67-2.477v-7.434l17.34-4.953 27.254 2.065z"/><path d="M289.842 109.165l-10.734 17.343-49.965-1.652 16.104-30.969 20.646.825c.002 0 23.782 14.723 23.949 14.453z" fill-rule="evenodd" clip-rule="evenodd" fill="#4a3b32"/><path fill-rule="evenodd" clip-rule="evenodd" fill="#3f3229" d="M269.196 78.608l20.646 30.557-44.594-15.279-13.627-23.537 16.518.415z"/><path fill-rule="evenodd" clip-rule="evenodd" fill="#5f5145" d="M171.228 108.177l11.166 13.483-32.955 17.009 8.8-34.074 4.815.82z"/><path fill-rule="evenodd" clip-rule="evenodd" fill="#4a3b32" d="M182.394 121.66l-24.155-17.065-.511-11.969-1.261-11.541 7.282-5.268 7.996 10.223 9.498 24.777z"/><path fill-rule="evenodd" clip-rule="evenodd" fill="#5f5145" d="M148.622 69.111l7.432-1.239 9.719 21.366-7.534 15.357z"/><path fill-rule="evenodd" clip-rule="evenodd" fill="#3f3229" d="M166.791 22.863l.26 16.31 7.947 35.477-2.746 21.126-6.479-6.538-17.151-20.127 11.561-47.073z"/><path fill-rule="evenodd" clip-rule="evenodd" fill="#4a3b32" d="M197.761 5.933l2.638 12.02-17.091 9.865-16.257 11.355-6.868-17.135L188.098 0z"/><path fill-rule="evenodd" clip-rule="evenodd" fill="#cea19c" d="M218.612 151.491l19.202-16.725-8.672-9.911-16.174-1.104-11.904-5.088-18.67 2.997 20.538 7.664 2.886 24.529z"/><path fill-rule="evenodd" clip-rule="evenodd" fill="#feeee9" d="M230.405 89.956l-17.437 33.795-30.574-2.091-16.621-32.422 1.278-50.065 33.348-21.22 36.695 36.526-5.473 15.871z"/><path fill-rule="evenodd" clip-rule="evenodd" fill="#eecec9" d="M208.127 57.558l-6.831 3.824-4.792 4.604-1.451 2.934-2.517-2.989-4.404-4.878-5.257-3.448-10.578.298 6.734 9.254 9.682 16.08 7.911-2.375 1.662 5.74 22.438-29.087zM232.304 58.51l-26.286-27.388 30.763 16.736z"/><path fill-rule="evenodd" clip-rule="evenodd" fill="#4a3b32" d="M253.917 58.787l15.279 19.821-37.575-8.259 1.103-19.153z"/><path fill-rule="evenodd" clip-rule="evenodd" fill="#5f5145" d="M262.588 26.579l6.608 52.029-63.178-47.486 28.492-7.021z"/><path fill-rule="evenodd" clip-rule="evenodd" fill="#6b5e51" d="M242.768 8.825l19.82 17.754-56.57 4.543 14.039-13.626z"/><path fill-rule="evenodd" clip-rule="evenodd" fill="#5f5145" d="M188.098 0l17.92 31.122 36.75-22.297z"/><path fill-rule="evenodd" clip-rule="evenodd" fill="#cbcaca" d="M152.704 94.747l-7.226-13.272-17.6-.539 19.974 29.942z"/><path fill-rule="evenodd" clip-rule="evenodd" fill="#eecec9" d="M237.814 134.766l-31.996 19.087 1.856 38.392z"/><path fill-rule="evenodd" clip-rule="evenodd" fill="#98c166" d="M211.95 212.142l8.329-4.537 20.4-5.213-19.673 14.238z"/><path fill-rule="evenodd" clip-rule="evenodd" fill="#98c166" d="M163.619 203.078l-1.918-4.551 7.933-3.985 13.662-1.153 35.715 12.203-8.131 8.59z"/><path fill-rule="evenodd" clip-rule="evenodd" fill="#6e884a" d="M214.557 289.258l-24.187 10.836 5.169-8.216 26.587-21.466 8.653 2.294z"/><path fill-rule="evenodd" clip-rule="evenodd" fill="#98c166" d="M228.101 200.669l13.87-3.345 18.916 16.442 2.951 36.291-10.109 6.69-3.273-2.42-8.258-39.859z"/><path fill-rule="evenodd" clip-rule="evenodd" fill="#6e884a" d="M263.838 250.057l-6.715-1.01-3.703 4.968-9.514 9.706-2.99 10.108 13.099-5.977z"/><path fill-rule="evenodd" clip-rule="evenodd" fill="#bcda89" d="M143.173 219.4l13.785 70.809 33.412 9.885 32.487-28.263 18.059 1.998 12.504-19.814-2.328-12.273-5.716-26.341-17.275-14.732-18.179 9.849-48.221-11.991-12.742 5.085z"/><path fill-rule="evenodd" clip-rule="evenodd" fill="#eecec9" d="M193.369 234.664l-.501-6.762 16.07.354.603 4.364z"/><path fill-rule="evenodd" clip-rule="evenodd" fill="#6d6e6e" d="M170.368 243.305l-1.669.157 2.399 13.31 6.432 13.631 1.093-1.189z"/><path fill-rule="evenodd" clip-rule="evenodd" fill="#969697" d="M304.558 213.256l-79.898 20.883-.429 11.16 4.266 7.754 80.975-21.251 6.725-13.069z"/><path fill-rule="evenodd" clip-rule="evenodd" fill="#6e884a" d="M207.139 234.094l-6.903 9.569 3.053 12.031 10.582 5.092 9.498-1.697 5.128-6.036-3.837-18.914-8.597-2.649z"/><path fill-rule="evenodd" clip-rule="evenodd" fill="#98c166" d="M207.139 234.094l-3.736 8.74 1.507 6.372 1.414 5.698 7.547 5.882-4.925.882-6.198-3.813-4.358-16.384 4.008-5.996z"/><path fill-rule="evenodd" clip-rule="evenodd" fill="#969697" d="M161.689 246.323l8.333 26.288 7.508-2.208-8.831-26.941z"/><path d="M168.425 251.995l144.683-37.898-1.106 2.397-143.079 37.195-.498-1.694zm3.047 10.15l.44 1.706 139.41-36.24 2.224-2.393-142.074 36.927zm-1.056-3.378l141.09-36.674 2.212-2.393-143.798 37.378.496 1.689z" fill-rule="evenodd" clip-rule="evenodd" fill="#e5e6e5"/><path fill-rule="evenodd" clip-rule="evenodd" fill="#eecec9" d="M312.277 239.119l20.276-14.007-4.856-2.208-13.692 4.414-4.533 4.484z"/><path fill-rule="evenodd" clip-rule="evenodd" fill="#a0a1a0" d="M333.021 197.954l.857-3.313 3.982.752-.499 7.108-2.917 2.855zM348.966 191.406l1.694-3.39 3.999 1.112-.855 8.257-2.848 1.423zM339.177 221.801l.96 5.763 2.131 2.404 2.425-1.834-2.441-5.102zM355.648 218.615l.719 5.532 2.683 2.29 2.726-2.29-3.855-4.471z"/><path fill-rule="evenodd" clip-rule="evenodd" fill="#cbcaca" d="M326.814 197.732l6.18 9.715 2.65-1.323-1.766-11.485zM344.035 190.666l5.743 10.598 2.206-1.766-1.324-11.482zM336.087 221.579l.439 9.718 5.742-1.329-2.209-8.83zM351.543 218.047l1.324 9.271 6.183-.881-4.417-10.159z"/><path fill-rule="evenodd" clip-rule="evenodd" fill="#6d6e6e" d="M353.937 201.945l-.965-14.028 5.807 2.967 1.38 19.329-3.332 1.689z"/><path fill-rule="evenodd" clip-rule="evenodd" fill="#969697" d="M359.492 193.756l-35.7 14.489 2.138 10.682 6.623 6.185 30.913-6.625z"/><path d="M321.953 213.188l31.798-11.924.307 2.416-27.41 9.913-4.695-.405zm7.357 5.601l-2.94 2.79 29.809-5.963-.375-2.306-26.494 5.479z" fill-rule="evenodd" clip-rule="evenodd" fill="#e5e6e5"/><path fill-rule="evenodd" clip-rule="evenodd" fill="#feeee9" d="M323.792 208.245l8.761 16.867-23.081 6.69-6.867-18.035z"/><path fill-rule="evenodd" clip-rule="evenodd" fill="#46af85" d="M159.547 228.518l9.351-6.055 4.483-12.137-12.121-15.367-9.062-2.217-9.025 26.658z"/><path fill-rule="evenodd" clip-rule="evenodd" fill="#eecec9" d="M193.052 228.066l1.1 3.641-10.123 10.444-14.529-8.09-1.271-15.155 13.084-1.225z"/><path fill-rule="evenodd" clip-rule="evenodd" fill="#308b69" d="M169.5 234.061l11.813-16.38-7.932-7.355-13.834 18.192z"/><path fill-rule="evenodd" clip-rule="evenodd" fill="#308b69" d="M159.679 171.118l23.617 22.271-10.136 17.313-20.962-17.96z"/><path fill-rule="evenodd" clip-rule="evenodd" fill="#feeee9" d="M214.572 236.549l-21.52-8.483-9.023 14.085 14.307 11.757 12.224-3.178z"/><path fill-rule="evenodd" clip-rule="evenodd" fill="#eecec9" d="M220.488 240.283l-5.916-3.734-16.236 17.359 12.093-.071z"/><path opacity=".15" fill-rule="evenodd" clip-rule="evenodd" fill="#070908" d="M146.792 237.989l51.544 15.919-14.307-11.757-40.856-22.751z"/><path d="M260.887 213.766l-15.511 1.635 2.633 12.636 13.747-3.596-.869-10.675zm-8.949 33.134l1.482 7.115 10.418-3.958-.501-6.148-11.399 2.991z" fill-rule="evenodd" clip-rule="evenodd" fill="#699b47"/><path fill-rule="evenodd" clip-rule="evenodd" fill="#507033" d="M165.345 377.69l48.809-.131v-4.153l-48.809.13zM239.075 385.034l35.064.087v-4.236l-35.064-.087z"/><path fill-rule="evenodd" clip-rule="evenodd" fill="#4c4d4e" d="M191.207 314.736l30.382 3.065-5.156 25.934-24.631-2.119zM233.628 318.296l32.482-4.955 1.997 33.446-25.141 1.64z"/><path fill-rule="evenodd" clip-rule="evenodd" fill="#eecec9" d="M213.397 89.252l7.402 12.137.116-9.927z"/><path fill-rule="evenodd" clip-rule="evenodd" fill="#cea19c" d="M191.321 81.626l-4.368 4.022 6.829 4.62 4.504-3.666z"/><path fill-rule="evenodd" clip-rule="evenodd" fill="#699b47" d="M201.044 96.599l.185.036 9.503 1.952-10.029 10.106-11.911-.582-12.326-13.098 5.923 1.519z"/><path fill-rule="evenodd" clip-rule="evenodd" fill="#fff" d="M189.253 95.62l-6.731 1.802 3.412 3.48 9.691 2.869 8.665-2.256 3.992-3.029-9.342-2.513z"/><path fill-rule="evenodd" clip-rule="evenodd" fill="#344529" d="M185.934 100.902l3.424 3.493 10.36.588 4.572-3.468z"/><path fill-rule="evenodd" clip-rule="evenodd" fill="#fef4f2" d="M192.536 65.931l-5.583 19.717 11.333.954-1.783-20.616z"/><path d="M181.903 62.395c1.809.147 3.137 1.957 2.968 4.044-.169 2.087-1.773 3.659-3.581 3.513-1.808-.146-3.137-1.957-2.967-4.044.169-2.086 1.772-3.659 3.58-3.513zM210.149 63.212c1.804.199 3.079 2.048 2.85 4.129-.231 2.081-1.88 3.606-3.683 3.406-1.803-.2-3.078-2.048-2.849-4.13.231-2.08 1.88-3.605 3.682-3.405z" fill-rule="evenodd" clip-rule="evenodd" fill="#2b2c2b"/><path fill-rule="evenodd" clip-rule="evenodd" fill="#507033" d="M176.466 95.013l8.491.591 5.52-.613 7.821.156 9.297 1.221 5.683-.22-2.544 2.439-28.212-1.165z"/><path d="M188.401 59.882s-5.742-3.83-6.053-3.885c-.311-.055-10.294 1.094-10.294 1.094l.242.812 8.762.69 7.073 2.46.27-1.171zM201.078 60.061s8.216-4.324 8.528-4.269c.311.054 11.076 1.234 11.076 1.234l.085.977-11.751 1.148-7.72 2.23-.218-1.32z" fill-rule="evenodd" clip-rule="evenodd" fill="#4a3b32"/><path fill-rule="evenodd" clip-rule="evenodd" fill="#eecec9" d="M175.331 89.492l-2.654 9.054-2.325-6.795z"/></svg>