<svg xmlns="http://www.w3.org/2000/svg" viewBox="0 0 400 400"><g fill-rule="evenodd" clip-rule="evenodd"><path opacity=".1" fill="#2c2b2b" d="M80.537 384.267L198.728 400l90.518-13.68-100.877-10.394z"/><path fill="#363839" d="M219.254 377.372l-13.529 8.794v6.143l41.153.906v-6.524zM138.624 376.453l-15.003 5.23.498 6.375 56.022-1.466v-5.74z"/><path fill="#494c4d" d="M169.645 355.115l-17.533 5.692-28.491 20.876 56.52-.831.462-13.416z"/><path fill="#37785d" d="M173.852 304.776l-18.222 18.767-3.518 37.264 28.491 6.629 9.139-31.593z"/><path fill="#3f8f6f" d="M188.277 278.947l-28.25-2.402-4.397 46.998 34.112 12.3 10.105-34.932-2.009-8.477h-.002z"/><path fill="#494c4d" d="M226.593 354.814l-9.772 12.461-11.096 18.891 41.153.525-4.688-16.926z"/><path fill="#37785d" d="M223.588 301.922l-14.516 35.519 7.749 29.834 25.369 2.49 2.025-39.819z"/><path fill="#3f8f6f" d="M212.769 270.833l-12.922 30.078 9.225 36.53 35.143-7.495 2.663-43.174z"/><path fill="#37785d" d="M199.847 300.911l-39.899-23.088 1.056-12.013 44.099 1.014v.002l40.77.673 1.005 19.273z"/><path fill="#484749" d="M177.082 247.479l-16.444 6.858.366 11.473 31.013 7.281 53.856-5.592.328-10.026z"/><path fill="#37785d" d="M281.311 20.95l13.809-4.105 3.957 5.299-14.252 4.556z"/><path fill="#3f8f6f" d="M248.168 40.166l11.172 10.732 35.821-33.945-7.964-9.316z"/><path fill="#feefe9" d="M188.576 156.646l-23.74 24.643 2.705 58.001 58.3-1.503 6.108-87.656z"/><path fill="#eecec9" d="M188.765 208.41l-19.321 8.478 7.861.75 11.46-2.94 12.105 4.014 22.493 3.974z"/><path fill="#feeee9" d="M173.44 173.538l-7.569 8.502-19.17-.669-7.786 15.245 18.482 24.04 8.716-17.428 8.114-29.742z"/><path fill="#5a753d" d="M173.44 173.538l-16.644-11.935-5.41 10.596 3.148 7.436 13.13 29.83-1.551-6.237 8.114-29.742z"/><path fill="#738d57" d="M173.44 173.538l-9.137 10.263-12.917-11.602-4.685 9.172 20.963 28.094-1.551-6.237 8.114-29.742z"/><path fill="#eecec9" d="M117.471 189.047l-1.733 8.094 21.964 41.629 19.695-18.114-21.419-31.243z"/><path fill="#5a753d" d="M165.21 174.076l-8.414-12.473 7.784-25.573 29.63 14.155-.723 15.977-6.058 2.164z"/><path fill="#709d51" d="M168.066 202.175L156.2 187.604l.596-26.001 30.633 6.723-10.347 22.73z"/><path fill="#709d51" d="M168.967 231.325l8.338-13.687-.223-26.582-20.882-3.452 1.197 33.052z"/><path fill="#738d56" d="M207.584 240.944l-17.431-2.106-12.848-21.2-19.908 3.018 3.241 33.681 30.267 4.788z"/><path fill="#5a753d" d="M210.59 208.185l-9.72 10.527-10.717 20.126.752 20.287 55.296-1.652L245 227.869l-20.737-25.243z"/><path fill="#709d51" d="M226.968 182.04l-17.898 11.61-8.2 25.062 31.362 2.936 11.209-32.935z"/><path fill="#709d51" d="M224.865 156.797l-5.588 6.111-10.207 30.742 32.764-2.145 7.373-37.413z"/><path fill="#3f8f6f" d="M282.306 244.027l4.413-26.389 24.998 16.835-20.155 42.475-7.749-6.827z"/><path fill="#37785d" d="M311.717 234.473l-2.206 61.816-23.941 6.562-1.757-32.73 3.569-7.431z"/><path fill="#54b08b" d="M245.6 237.336l.601 20.137 11.57 16.227 20.888 2.104-1.515-54.156z"/><path fill="#3f8f6f" d="M240.942 211.191l-8.71 10.457 13.969 35.825 16.379-25.695-7.813-15.93zM263.181 274.902l-3.606 4.959 3.005 15.477 19.009-6.011-8.039-19.384z"/><path fill="#eecec9" d="M280.912 268.141l-13.373-2.705-9.768 8.264 1.804 6.161 14.576-1.202zM283.767 277.005l10.032 9.294-8.229 16.552-22.99-7.513 4.809-9.768z"/><path fill="#feeee9" d="M277.907 254.767l9.466 9.616 6.426 21.916-26.41-.729.15-20.134z"/><path fill="#eecec9" d="M270.769 215.699l-8.189 16.079 4.959 33.658 19.834-1.053 4.55-48.684z"/><path fill="#feeee9" d="M268.14 194.061l5.636-3.823 18.147 25.461-29.343 16.079-14.147-13.066z"/><path fill="#5a753d" d="M241.393 183.393l12.511-21.039 12.316 17.281-6.991 18.085-10.796 20.992z"/><path fill="#54b08b" d="M246.201 154.392l-5.896 6.684-8.073 60.572 16.201-2.936 5.471-56.358z"/><path d="M188.512 130.118l-13.226 16.144 12.581 13.757 5.62 6.144 25.105-14.953s-5.749-16.756-5.609-16.756c.141-.001-24.471-4.336-24.471-4.336z" fill="#cea39f"/><path fill="#3f8f6f" d="M136.473 159.65l-9.865 26.369 13.697-3.755 16.491-20.661-4.431-6.746-9.736-1.66z"/><path d="M156.796 161.603l22.907-19.459s-27.608-.988-26.709-1.258c.404-.122-4.65-.57-7.524 4.023l-3.528 9.008 14.854 7.686z" fill="#37785d"/><path fill="#3f8f6f" d="M85.985 196.088L60.14 211.565l29.752 25.244 9.316-1.804z"/><path d="M114.084 171.445l-53.944 40.12 12.172-.451s49.888-24.009 50.488-24.943c.6-.934-8.716-14.726-8.716-14.726z" fill="#54b08b"/><path fill="#37785d" d="M121.297 189.778l-4.48 9.408-17.609 35.819-26.896-23.891 38.389-30.407z"/><path fill="#3f8f6f" d="M132.417 182.865l3.561 6.548-19.161 9.773-6.116-18.479 10.295-10.163 11.571 4.507z"/><path fill="#eecec9" d="M135.978 189.413l-10.7-10.267 7.289-4.095 9.26 5.307z"/><path fill="#4f5253" d="M139.687 126.799l-14.031 6.744 16.285 20.374 4.982-4.5z"/><path d="M137.542 90.472l-8.25 8.809 9.857 22.306s11.75 9.914 10.418 10.137c-1.331.224 9.509-27.688 9.509-27.688l-14.123-13.144-7.411-.42z" fill="#46382d"/><path fill="#6f7173" d="M151.386 123.334l-4.406-3.704-7.831 1.957-13.493 11.956 7.411-.421z"/><path fill="#484749" d="M146.98 119.63l-13.913 13.492 13.856 16.295 9.836-8.222z"/><path fill="#46382d" d="M259.48 106.833l7.971 2.238-14.403 49.643-12.655-1.189-4.825-32.513z"/><path fill="#35291b" d="M248.433 115.642l-5.243 21.186-12.23 12.158.692-25.513 8.979-14.688z"/><path fill="#eecec9" d="M238.225 100.121l.794 20.811-10.176 35.423-9.566 6.553-25.79 3.254 20.713-16.426 9.513-53.378z"/><path fill="#cea19c" d="M226.199 100.318l1.923 8.734 10.897 11.88 16.546-17.456z"/><path fill="#feeee9" d="M240.603 110.749l-14.404-1.958V81.383h14.823z"/><path fill="#514237" d="M239.903 73.971l-11.208 7.652 14.495 55.205 24.261-27.757-12.584-31.184z"/><path fill="#efd0cb" d="M228.695 81.623l-16.371 49.744-10.177-87.461 28.667-12.026 12.445 26.01z"/><path fill="#605044" d="M231.949 94.016l-10.084 56.726-7.665-1.006-8.964-1.349 13.375-36.123 10.084-30.641z"/><path fill="#6e5f51" d="M244.938 45.166l14.402 5.732-4.473 26.989-26.172 3.736 5.195-27.369z"/><path fill="#74665b" d="M204.804 25.168l4.195 22.374 13.607-2.175 11.284 8.887 25.45-3.356-13.983-33.84zM161.245 51.947l-25.24 19.088-6.713 28.246 13.215-1.399 27.792-19.4z"/><path d="M164.811 18.456c-.806-2.35-34.679 28.527-34.679 28.527l5.873 24.052 21.674 14.404 7.132-66.983z" fill="#46382d"/><path fill="#605044" d="M157.26 22.372l-17.796-1.956-9.332 26.567 24.331 6.712zM215.711 15.66l14.408-1.801 15.238 3.199-31.953 16.36z"/><path fill="#46382d" d="M174.982 32.443l43.629-29.646 11.508 11.062-17.172 25.155-47.194 21.396z"/><path fill="#605044" d="M153.447 25.171l-13.983-4.755L185.051 0l33.56 2.797z"/><path fill="#74665b" d="M166.313 53.139L145.79 37.056l-6.326-16.64 79.147-17.619-42.86 41.81z"/><path fill="#feefe9" d="M145.79 37.056l-3.283 60.826 1.921 11.42 9.984 33.031 25.647 1.972 16.481-1.326 22.071-30.715 3.995-66.897-9.659-6.353-37.444 3.848z"/><path fill="#efd0cb" d="M166.627 73.761l-11.326-5.174-8.6 4.056 11.812 13.655 9.151 16.98 7.915-9.241 5.733 9.973 12.317-16.839 17.188-10.893-8.95-4.893-17.694 5.663-5.758 2.932-2.557 3.99-3.147-4.056-4.825-2.866z"/><path fill="#74665b" d="M144.428 109.302l8.643 34.977 52.165 4.108 13.375-36.123-13.375 7.898-11.026-7.838-33.76-.696-8.041 8.002z"/><path fill="#cea19c" d="M173.061 99.143l-5.397 4.135 7.622 5.282 6.026-4.55z"/><path fill="#fff5f3" d="M172.711 79.914l-5.047 23.364 13.648.732-2.897-24.03z"/><path fill="#605044" d="M182.781 72.783l19.558-3.789 8.478 7.284-9.931-2.653-16.713 3.423zM169.704 73.132l-14.497-5.107-8.506 4.619 7.799-.659 13.386 5.063s1.808-3.92 1.818-3.916z"/><path fill="#feeee9" d="M157.929 123.9l5.197-4.729 29.326.345 7.781 5.475-3.761 10.536-36.269-1.984z"/><path fill="#cea39f" d="M164.836 121.424l26.045.517-.978 2.984-24.474-.643z"/><path fill="#738d57" d="M214.2 149.736l28.99-12.908-2.797 20.697-21.116 5.383z"/><path fill="#feeee9" d="M105.8 170.171l30.673-10.521 2.029 19.008-27.801 2.049z"/><path fill="#6f7173" d="M184.369 265.511l6.536-6.386 8.942 6.686-7.83 7.28z"/><path d="M162.807 85.039c0 2.06-1.67 3.73-3.73 3.73s-3.73-1.67-3.73-3.73 1.67-3.73 3.73-3.73c2.059 0 3.73 1.67 3.73 3.73zM196.171 85.837c0 2.055-1.666 3.72-3.72 3.72-2.055 0-3.72-1.666-3.72-3.72 0-2.054 1.666-3.72 3.72-3.72 2.054 0 3.72 1.666 3.72 3.72z" fill="#2b2b2b"/><path fill="#709d51" d="M266.22 179.635l-15.89 19.538-1.897 19.539 25.343-28.474z"/><path fill="#eecec9" d="M190.058 211.407l-1.293 1.828-2.607-3.361 3.995-20.461 1.219 21.178z"/></g><path fill-rule="evenodd" clip-rule="evenodd" fill="#efd0cb" d="M195.365 110.008l6.782 1.091 3.089 6.493M152.458 116.183l6.618-6.175-5.855 1.994zM172.534 69.262l2.858 4.881-2.858 3.525z"/><g fill-rule="evenodd" clip-rule="evenodd"><path opacity=".1" fill="#2c2b2b" d="M80.537 384.267L198.728 400l90.518-13.68-100.877-10.394z"/><path fill="#363839" d="M219.254 377.372l-13.529 8.794v6.143l41.153.906v-6.524zM138.624 376.453l-15.003 5.23.498 6.375 56.022-1.466v-5.74z"/><path fill="#494c4d" d="M169.645 355.115l-17.533 5.692-28.491 20.876 56.52-.831.462-13.416z"/><path fill="#37785d" d="M173.852 304.776l-18.222 18.767-3.518 37.264 28.491 6.629 9.139-31.593z"/><path fill="#3f8f6f" d="M188.277 278.947l-28.25-2.402-4.397 46.998 34.112 12.3 10.105-34.932-2.009-8.477h-.002z"/><path fill="#494c4d" d="M226.593 354.814l-9.772 12.461-11.096 18.891 41.153.525-4.688-16.926z"/><path fill="#37785d" d="M223.588 301.922l-14.516 35.519 7.749 29.834 25.369 2.49 2.025-39.819z"/><path fill="#3f8f6f" d="M212.769 270.833l-12.922 30.078 9.225 36.53 35.143-7.495 2.663-43.174z"/><path fill="#37785d" d="M199.847 300.911l-39.899-23.088 1.056-12.013 44.099 1.014v.002l40.77.673 1.005 19.273z"/><path fill="#484749" d="M177.082 247.479l-16.444 6.858.366 11.473 31.013 7.281 53.856-5.592.328-10.026z"/><path fill="#37785d" d="M281.311 20.95l13.809-4.105 3.957 5.299-14.252 4.556z"/><path fill="#3f8f6f" d="M248.168 40.166l11.172 10.732 35.821-33.945-7.964-9.316z"/><path fill="#feefe9" d="M188.576 156.646l-23.74 24.643 2.705 58.001 58.3-1.503 6.108-87.656z"/><path fill="#eecec9" d="M188.765 208.41l-19.321 8.478 7.861.75 11.46-2.94 12.105 4.014 22.493 3.974z"/><path fill="#feeee9" d="M173.44 173.538l-7.569 8.502-19.17-.669-7.786 15.245 18.482 24.04 8.716-17.428 8.114-29.742z"/><path fill="#5a753d" d="M173.44 173.538l-16.644-11.935-5.41 10.596 3.148 7.436 13.13 29.83-1.551-6.237 8.114-29.742z"/><path fill="#738d57" d="M173.44 173.538l-9.137 10.263-12.917-11.602-4.685 9.172 20.963 28.094-1.551-6.237 8.114-29.742z"/><path fill="#eecec9" d="M117.471 189.047l-1.733 8.094 21.964 41.629 19.695-18.114-21.419-31.243z"/><path fill="#5a753d" d="M165.21 174.076l-8.414-12.473 7.784-25.573 29.63 14.155-.723 15.977-6.058 2.164z"/><path fill="#709d51" d="M168.066 202.175L156.2 187.604l.596-26.001 30.633 6.723-10.347 22.73z"/><path fill="#709d51" d="M168.967 231.325l8.338-13.687-.223-26.582-20.882-3.452 1.197 33.052z"/><path fill="#738d56" d="M207.584 240.944l-17.431-2.106-12.848-21.2-19.908 3.018 3.241 33.681 30.267 4.788z"/><path fill="#5a753d" d="M210.59 208.185l-9.72 10.527-10.717 20.126.752 20.287 55.296-1.652L245 227.869l-20.737-25.243z"/><path fill="#709d51" d="M226.968 182.04l-17.898 11.61-8.2 25.062 31.362 2.936 11.209-32.935z"/><path fill="#709d51" d="M224.865 156.797l-5.588 6.111-10.207 30.742 32.764-2.145 7.373-37.413z"/><path fill="#3f8f6f" d="M282.306 244.027l4.413-26.389 24.998 16.835-20.155 42.475-7.749-6.827z"/><path fill="#37785d" d="M311.717 234.473l-2.206 61.816-23.941 6.562-1.757-32.73 3.569-7.431z"/><path fill="#54b08b" d="M245.6 237.336l.601 20.137 11.57 16.227 20.888 2.104-1.515-54.156z"/><path fill="#3f8f6f" d="M240.942 211.191l-8.71 10.457 13.969 35.825 16.379-25.695-7.813-15.93zM263.181 274.902l-3.606 4.959 3.005 15.477 19.009-6.011-8.039-19.384z"/><path fill="#eecec9" d="M280.912 268.141l-13.373-2.705-9.768 8.264 1.804 6.161 14.576-1.202zM283.767 277.005l10.032 9.294-8.229 16.552-22.99-7.513 4.809-9.768z"/><path fill="#feeee9" d="M277.907 254.767l9.466 9.616 6.426 21.916-26.41-.729.15-20.134z"/><path fill="#eecec9" d="M270.769 215.699l-8.189 16.079 4.959 33.658 19.834-1.053 4.55-48.684z"/><path fill="#feeee9" d="M268.14 194.061l5.636-3.823 18.147 25.461-29.343 16.079-14.147-13.066z"/><path fill="#5a753d" d="M241.393 183.393l12.511-21.039 12.316 17.281-6.991 18.085-10.796 20.992z"/><path fill="#54b08b" d="M246.201 154.392l-5.896 6.684-8.073 60.572 16.201-2.936 5.471-56.358z"/><path d="M188.512 130.118l-13.226 16.144 12.581 13.757 5.62 6.144 25.105-14.953s-5.749-16.756-5.609-16.756c.141-.001-24.471-4.336-24.471-4.336z" fill="#cea39f"/><path fill="#3f8f6f" d="M136.473 159.65l-9.865 26.369 13.697-3.755 16.491-20.661-4.431-6.746-9.736-1.66z"/><path d="M156.796 161.603l22.907-19.459s-27.608-.988-26.709-1.258c.404-.122-4.65-.57-7.524 4.023l-3.528 9.008 14.854 7.686z" fill="#37785d"/><path fill="#3f8f6f" d="M85.985 196.088L60.14 211.565l29.752 25.244 9.316-1.804z"/><path d="M114.084 171.445l-53.944 40.12 12.172-.451s49.888-24.009 50.488-24.943c.6-.934-8.716-14.726-8.716-14.726z" fill="#54b08b"/><path fill="#37785d" d="M121.297 189.778l-4.48 9.408-17.609 35.819-26.896-23.891 38.389-30.407z"/><path fill="#3f8f6f" d="M132.417 182.865l3.561 6.548-19.161 9.773-6.116-18.479 10.295-10.163 11.571 4.507z"/><path fill="#eecec9" d="M135.978 189.413l-10.7-10.267 7.289-4.095 9.26 5.307z"/><path fill="#4f5253" d="M139.687 126.799l-14.031 6.744 16.285 20.374 4.982-4.5z"/><path d="M137.542 90.472l-8.25 8.809 9.857 22.306s11.75 9.914 10.418 10.137c-1.331.224 9.509-27.688 9.509-27.688l-14.123-13.144-7.411-.42z" fill="#46382d"/><path fill="#6f7173" d="M151.386 123.334l-4.406-3.704-7.831 1.957-13.493 11.956 7.411-.421z"/><path fill="#484749" d="M146.98 119.63l-13.913 13.492 13.856 16.295 9.836-8.222z"/><path fill="#46382d" d="M259.48 106.833l7.971 2.238-14.403 49.643-12.655-1.189-4.825-32.513z"/><path fill="#35291b" d="M248.433 115.642l-5.243 21.186-12.23 12.158.692-25.513 8.979-14.688z"/><path fill="#eecec9" d="M238.225 100.121l.794 20.811-10.176 35.423-9.566 6.553-25.79 3.254 20.713-16.426 9.513-53.378z"/><path fill="#cea19c" d="M226.199 100.318l1.923 8.734 10.897 11.88 16.546-17.456z"/><path fill="#feeee9" d="M240.603 110.749l-14.404-1.958V81.383h14.823z"/><path fill="#514237" d="M239.903 73.971l-11.208 7.652 14.495 55.205 24.261-27.757-12.584-31.184z"/><path fill="#efd0cb" d="M228.695 81.623l-16.371 49.744-10.177-87.461 28.667-12.026 12.445 26.01z"/><path fill="#605044" d="M231.949 94.016l-10.084 56.726-7.665-1.006-8.964-1.349 13.375-36.123 10.084-30.641z"/><path fill="#6e5f51" d="M244.938 45.166l14.402 5.732-4.473 26.989-26.172 3.736 5.195-27.369z"/><path fill="#74665b" d="M204.804 25.168l4.195 22.374 13.607-2.175 11.284 8.887 25.45-3.356-13.983-33.84zM161.245 51.947l-25.24 19.088-6.713 28.246 13.215-1.399 27.792-19.4z"/><path d="M164.811 18.456c-.806-2.35-34.679 28.527-34.679 28.527l5.873 24.052 21.674 14.404 7.132-66.983z" fill="#46382d"/><path fill="#605044" d="M157.26 22.372l-17.796-1.956-9.332 26.567 24.331 6.712zM215.711 15.66l14.408-1.801 15.238 3.199-31.953 16.36z"/><path fill="#46382d" d="M174.982 32.443l43.629-29.646 11.508 11.062-17.172 25.155-47.194 21.396z"/><path fill="#605044" d="M153.447 25.171l-13.983-4.755L185.051 0l33.56 2.797z"/><path fill="#74665b" d="M166.313 53.139L145.79 37.056l-6.326-16.64 79.147-17.619-42.86 41.81z"/><path fill="#feefe9" d="M145.79 37.056l-3.283 60.826 1.921 11.42 9.984 33.031 25.647 1.972 16.481-1.326 22.071-30.715 3.995-66.897-9.659-6.353-37.444 3.848z"/><path fill="#efd0cb" d="M166.627 73.761l-11.326-5.174-8.6 4.056 11.812 13.655 9.151 16.98 7.915-9.241 5.733 9.973 12.317-16.839 17.188-10.893-8.95-4.893-17.694 5.663-5.758 2.932-2.557 3.99-3.147-4.056-4.825-2.866z"/><path fill="#74665b" d="M144.428 109.302l8.643 34.977 52.165 4.108 13.375-36.123-13.375 7.898-11.026-7.838-33.76-.696-8.041 8.002z"/><path fill="#cea19c" d="M173.061 99.143l-5.397 4.135 7.622 5.282 6.026-4.55z"/><path fill="#fff5f3" d="M172.711 79.914l-5.047 23.364 13.648.732-2.897-24.03z"/><path fill="#605044" d="M182.781 72.783l19.558-3.789 8.478 7.284-9.931-2.653-16.713 3.423zM169.704 73.132l-14.497-5.107-8.506 4.619 7.799-.659 13.386 5.063s1.808-3.92 1.818-3.916z"/><path fill="#feeee9" d="M157.929 123.9l5.197-4.729 29.326.345 7.781 5.475-3.761 10.536-36.269-1.984z"/><path fill="#cea39f" d="M164.836 121.424l26.045.517-.978 2.984-24.474-.643z"/><path fill="#738d57" d="M214.2 149.736l28.99-12.908-2.797 20.697-21.116 5.383z"/><path fill="#feeee9" d="M105.8 170.171l30.673-10.521 2.029 19.008-27.801 2.049z"/><path fill="#6f7173" d="M184.369 265.511l6.536-6.386 8.942 6.686-7.83 7.28z"/><path d="M162.807 83.039c0 2.06-1.67 3.73-3.73 3.73s-3.73-1.67-3.73-3.73 1.67-3.73 3.73-3.73c2.059 0 3.73 1.67 3.73 3.73zM196.171 83.837c0 2.055-1.666 3.72-3.72 3.72-2.055 0-3.72-1.666-3.72-3.72 0-2.054 1.666-3.72 3.72-3.72 2.054 0 3.72 1.666 3.72 3.72z" fill="#2b2b2b"/><path fill="#709d51" d="M266.22 179.635l-15.89 19.538-1.897 19.539 25.343-28.474z"/><path fill="#eecec9" d="M190.058 211.407l-1.293 1.828-2.607-3.361 3.995-20.461 1.219 21.178z"/></g><path fill-rule="evenodd" clip-rule="evenodd" fill="#efd0cb" d="M205.236 117.592l-2.169-7.584-8.857-1.223zM152.458 116.183l7.924-8.289-7.924 1.408zM172.534 69.262l2.858 4.881-2.858 3.525z"/></svg>