<svg xmlns="http://www.w3.org/2000/svg" viewBox="0 0 400 400"><path fill="#446125" d="M176.549 279.131l16.424 39.805 23.774 22.675 20.286-3.356 4.311-31.706h-7.016l-13.1-32.964z"/><path fill="#5a753d" d="M234.328 306.549l9.38 29.885L264.94 348.5l21.231-1.758 13.329-59.804-44.378 5.071z"/><path fill="#446125" d="M243.708 336.434l42.463 10.308-5.008 22.474-19.427-.451-10.228-7.481z"/><path fill="#3d5628" d="M233.494 364.286l3.539-26.031-44.06-19.319 14.527 35.207 9.497 8.357z"/><path opacity=".1" fill="#2b2b2b" d="M35.651 383.603l175.852-14.246 123.732 17.368L177.33 400l-100.603-3.957z"/><path fill="#545454" d="M207.5 354.143l-22.114 18.204 22.114 2.029 25.994-2.029v-8.061z"/><path fill="#424242" d="M185.386 372.347h48.108v6.847h-48.108z"/><path fill="#606060" d="M251.508 361.284l-6.509 20.392h36.455l-.291-12.46z"/><path fill="#424242" d="M244.999 381.676h36.455v6.847h-36.455z"/><path fill="#3d5628" d="M209.463 294.809l24.865 11.74-13.046-28.673z"/><path fill="#997c7c" d="M128.241 137.574l-10.614-24.344-8.241 2.107 8.078 26.042h6.076z"/><path fill="#738d56" d="M184.793 153.635l-41.63 46.215 37.805 18.834 4.332-26.841z"/><path fill="#5a753d" d="M311.575 169.865l28.429 56.123-41.342 25.931z"/><path fill="#fff" d="M209.775 143.673l13.504 79.136 57.479-73.009-42.204 11.615z"/><path fill="#ddd" d="M238.602 162.412l-23.632 12.441 10.339 32.729 25.63-22.876z"/><path fill="#5b5b5b" d="M246.264 176.257l-7.662-13.845-14.72 7.749 5.205 12.722-7.989 7.376 3.196 23.414 12.288-17.838-2.157-11.881z"/><path fill="#b29393" d="M192.482 13.602l20.538-6.846 70.62 22.339 3.963 49.362 16.214 8.287-30.085 58.913-35.13 13.509-20.538-16.214-15.856-15.132-29.763-9.654-3.128-27.071z"/><path fill="#997c7c" d="M283.64 29.095l-30.508 91.937-16.565 18.065-25.541-4.565-1.251 9.141 53.758 11.28 17.225-5.153 23.059-63.056-16.214-8.287z"/><path fill="#7c6262" d="M202.208 127.82l59.003 19.366 2.322 7.767-24.931 7.459-28.827-18.739zM296.115 107.806l-13.736-5.118 8.63 19.081zM288.054 99.175l3.243-10.539 6.755 2.432z"/><path fill="#5b5b5b" d="M209.372 7.972L234.548 0l63.504 19.727-15.036 11.38z"/><path fill="#444" d="M298.052 19.727l15.405 39.988-9.64 27.029-19.276-7.566-1.525-48.071z"/><path fill="#997c7c" d="M249.06 57.179l-27.483 22.603-26.132-38.276 11.556.409 6.575 4.489 15.907 4.83 8.518.431z"/><path fill="#c4a7a7" d="M229.483 51.234l-6.995 10.348-.911 18.2-19.101-5.561 10.108-15.961.995-11.855z"/><path fill="#7c6262" d="M221.577 79.782l-12.06 4.961-7.041-10.522z"/><path fill="#434343" d="M249.06 57.179l-10.433-4.931-9.144-1.014 3.684-2.986 9.204.984zM213.579 46.405v-4.442l-9.995-4.441-8.139 3.984 9.556.492z"/><path fill="#90a86a" d="M209.775 143.673l-24.982 9.962-8.244 125.496 32.914 15.678 10.819-11.929 7.875-32.964-2.848-42.334-10.339-32.729z"/><path fill="#738d56" d="M280.758 149.8l-23.945 30.378-31.504 27.404-5.027 75.298 14.046 23.669 65.172-19.611 12.075-117.073z"/><path fill="#bfdb8e" d="M209.775 143.673l-15.515 30.926 31.049 32.983z"/><path fill="#99c26d" d="M225.309 207.582l52.807-11.681 2.642-46.101z"/><path fill="#446125" d="M237.286 220.821l4.058 6.086-5.833 3.804-4.057-4.945zM235.215 241.717l4.058 6.086-5.833 3.804-4.057-4.945zM234.064 263.636l4.057 6.086-5.832 3.804-4.058-4.945z"/><path opacity=".14" fill="#2b2b2b" d="M255.545 242.562l24.689 29.755h20.774l1.744-16.91-22.371-14.18z"/><path fill="#90a86a" d="M340.004 225.988l-45.043-.281-8.79 10.008 3.081 15.881 35.889 9.979z"/><path fill="#fff" d="M285.141 225.509l-6.237 11.594.283 11.597 10.065 2.896 5.709-25.889z"/><path fill="#7c6262" d="M285.141 225.509l-10.103-12.935-11.726 3.881 11.414 7.7z"/><path fill="#997c7c" d="M285.141 225.509l-21.829-9.054-8.204 14.643 2.132 13.527 21.947 4.075z"/><path fill="#b29393" d="M263.312 216.455l-17.519-3.176-1.458 15.955 12.905 15.391z"/><path fill="#5a753d" d="M180.968 218.684l-40.807-42.015-14.202 1.912-5.099 12.234 19.738 43.254z"/><path fill="#ddd" d="M120.86 190.815l19.301-14.146-6.594-6.804-10.865 1.945-6.929 6.771z"/><path fill="#7c6262" d="M115.773 178.581l-14.679-14.164 12.439-9.344 21.302-4.058-1.268 18.85z"/><path fill="#997c7c" d="M101.094 164.417l-2.296-16.723 14.463-5.964 21.574 9.285z"/><path fill="#b29393" d="M123.36 154.45L112.265 150l.996-8.27 14.98-4.156 6.594 13.441-6.066 7.354z"/><path fill="#997c7c" d="M134.835 151.015l-11.475 3.435-.658 20.737 10.865-5.322zM221.577 79.782l6.257 6.852-3.129 13.242zM202.476 74.221l-11.061 15.801 2.919-12.857z"/><path fill="#434343" d="M209.517 84.743l15.188 15.133-16.449-7.972zM209.517 84.743l-3.333 5.945-14.769-.666z"/><path fill="#7c6262" d="M191.415 90.022l33.29 9.854-6.846 13.962-26.733-8.215z"/><path fill="#fff" d="M194.626 93.623l25.5 8-1.875 3.5-23.75-7.375z"/><circle cx="238.165" cy="64.714" r="4.053" fill="#2b2b2b"/><circle cx="201.001" cy="52.714" r="4.053" fill="#2b2b2b"/><g><path fill="#5b5b5b" d="M129.963 190.494l4.872-39.479 6.992 1.691 2.114 3.975-2.205 33.813z"/><path fill="#686868" d="M134.835 151.015l20.789-12.17 4.061 2.704.988 2.37-16.732 12.762z"/><path fill="#444" d="M155.624 138.845l7.079-11.922 6.826 7.524 3.914 8.707-12.77.765z"/><path fill="#686868" d="M162.703 126.923l16.317-1.014 3.167 5.833-8.744 11.412z"/><path fill="#35785d" d="M61.283 205.35l117.995-6.558 27.577 71.116H87.66z"/><path fill="#3f8f6f" d="M206.855 269.908l5.819-14.579-31.739-66.63-5.972 8.326 3.3 6.843z"/><path fill="#54b08b" d="M180.935 188.699l-111.801 3.938-7.851 12.713 116.98-1.482zM85.317 223.794l82.686 2.031 5.269 74.302-2.728 95.916-93.817-5.199z"/><path fill="#3f8f6f" d="M168.003 225.825l16.767 33.222 9.553 130.221-23.779 6.775z"/></g></svg>