<svg xmlns="http://www.w3.org/2000/svg" viewBox="0 0 400 400"><g fill-rule="evenodd" clip-rule="evenodd"><path opacity=".15" fill="#070908" d="M215.567 399.359L88.701 382.973l108.809-16.851 123.989 20.711z"/><path fill="#424242" d="M174.266 368.363l-.772 12.755-10.685 2.54-32.54-.144-4.279-1.658 20.122-17.069h13.948z"/><path fill="#7d7c7d" d="M136.122 276.875l9.99 87.912 11.985 1.526 3.314-5.097 25.515-78.383-12-15.811-15.4 12.367z"/><path fill="#5e5f5f" d="M179.837 290.428l-10.509-8.761-11.231 84.646 16.169 2.05 23.119-63.738z"/><path fill="#424242" d="M232.26 386.833l2.847-16.843 17.2-3.868 11.729 2.606 7.957 18.972-5.606 1.996-23.43-.316z"/><path fill="#7d7c7d" d="M228.382 291.182l23.989 73-1.787 5.133-15.477.675-37.722-65.365 5.675-17.719 19.314 1.979z"/><path fill="#5e5f5f" d="M222.374 288.885l28.21 80.43 13.452-.587-1.347-91.854-19.082-1.576-13.761 4.371z"/><path fill="#444648" d="M136.122 276.875l36.776-4.555 89.791 4.554-65.304 27.751z"/><path fill="#686b6d" d="M125.996 386.156h47.498v-5.038l-47.566.738zM232.26 392h39.735v-4.3l-39.735-.867z"/><path fill="#45622e" d="M142.137 135.629l3.309 31.624-5.742 30.21-31.702-44.437.498-23.481 16.065-7.358z"/><path fill="#5a753d" d="M160.184 136.832l-18.047-1.203-1.146 33.109-2.89 64.481-.52 11.568-1.459 32.567 46.513-.174 4.954-18.381 3.909-105.478-2.68-9.993-16.603 10.348z"/><path fill="#45622e" d="M250.657 130.095l-2.925 31.483 8.288 33.957 28.02-38.723 9.931-37.305-21.66-3.972z"/><path fill="#738d56" d="M250.657 130.095l-19.637 2.77-25.599 24.661-17.325-10.106-4.057 109.406-.756 20.351 79.406-.303-8.809-107.451z"/><path opacity=".7" fill="#d8e14d" d="M184.039 256.826l-11.525 20.391 10.769-.04 6.085-5.538z"/><path opacity=".7" fill="#b5c436" d="M184.039 256.826l-.756 20.351 15.003-.059z"/><path opacity=".7" fill="#d8e14d" d="M225.473 207.574L213.32 235.62l15.28 13.141z"/><path opacity=".7" fill="#b5c436" d="M228.6 248.761l-3.127-41.187 14.837 25.965zM202.534 226.344l3.128 15.64 22.938 6.777z"/><path opacity=".7" fill="#d8e14d" d="M249.455 221.652L228.6 248.761l19.811-8.341zM149.115 209.018l-11.014 24.201 11.014 17.187 6.738-20.695z"/><path opacity=".7" fill="#b5c436" d="M149.115 250.406l12.428-15.2-12.428-26.188z"/><path opacity=".7" fill="#d8e14d" d="M169.328 225.38l-20.213 25.026 18.288-9.145z"/><path opacity=".7" fill="#b5c436" d="M137.581 244.787l11.534 5.619-11.014-17.187z"/><path opacity=".7" fill="#d8e14d" d="M174.624 188.669l12.806-23.293-1.44 38.843z"/><path opacity=".7" fill="#b5c436" d="M187.43 165.376l-1.44 38.843 13.071-14.34zM167.162 178.46l2.023 18.651 16.805 7.108z"/><path opacity=".7" fill="#d8e14d" d="M209.03 178.941l-23.04 25.278 21.251-7.188zM242.762 155.535l11.118 13.888-3.223-39.328z"/><path opacity=".7" fill="#b5c436" d="M236.46 147.661l.964 15.399 16.456 6.363zM149.494 156.064l-7.357-20.435-1.146 33.109z"/><path opacity=".7" fill="#d8e14d" d="M155.613 162.579l-14.622 6.159 14.14-21.077z"/><path fill="#5a753d" d="M284.04 156.812l-11.729-41.277 21.922-16.417 16.716 3.486 1.392 14.633z"/><path fill="#709d51" d="M306.344 90.312l-12.111 8.806 18.108 18.119 10.656-14.145-3.083-11.395z"/><path fill="#c3a39f" d="M319.243 68.695l-4.341 6.02-.715 21.618 8.81 6.759 18.679-14.062-5.736-17.097z"/><path fill="#e2c6c3" d="M339.608 54.087l-20.365 14.608 22.433 20.335 10.417-21.582zM301.977 62.96l4.367 27.352 7.843 6.021 7.312-9.494-13.875-25.504z"/><path fill="#5a753d" d="M108.002 153.026l16.563-30.839-21.481-18.663-17.342 1.243-2.046 15.193z"/><path fill="#709d51" d="M91.829 93.825l11.255 9.699-19.388 16.436-9.377-13.057 3.979-12.819z"/><path fill="#c3a39f" d="M80.366 71.634l3.394 6.57-.049 21.684-9.391 7.017-17.405-16.492 6.717-16.584z"/><path fill="#e2c6c3" d="M61.082 55.931l19.284 15.703-23.451 18.779-9.008-22.007zM97.812 67l-5.983 26.825-8.118 6.063-7.646-9.857L92.32 65.048z"/><path fill="#9e7f79" d="M162.003 115.535l4.438 16.726 11.55 13.233 10.105 1.926 14.438-2.887 15.006-12.409 2.799-15.022-15.147 5.172z"/><path fill="#c3a39f" d="M203.014 127.207l12.036-.278-.946 8.036 6.235-.058 4.812-6.737 14.499-30.147.9-29.781-20.211-50.575.481 54.679z"/><path fill="#9e7f79" d="M241.994 83.414l-8.66.482 6.316 14.127 4.593-9.552z"/><path fill="#cdcccb" d="M242.958 17.484l-11.549-.481-8.045 9.624 8.045 40.424 5.801 1.888 18.261-3.811zM137.768 62.193l7.497-15.353 5.295-20.213v-8.18l-12.917 1.457z"/><path fill="#dddddc" d="M170.908 13.634l-9.143 10.107-11.55 2.886-12.572-6.723 34.708-18.301 3.37 5.775z"/><path fill="#eaeceb" d="M207.346.641l-34.65.962-1.443 12.031 9.144 2.887 19.25-4.33 9.142-5.294z"/><path fill="#dddddc" d="M242.958 17.965L207.346 1.122l-7.699 11.549 10.106 9.144 13.611 4.812z"/><path fill="#e2c6c3" d="M155.613 125.64l47.401 1.567 17.325-29.184 3.025-71.396-23.717-14.436-28.394 1.443-21.897 12.534-11.588 36.025 1.992 38.639z"/><path fill="#c3a39f" d="M159.702 46.952l-6.736 5.295 8.661 4.571 7.701 19.49 7.431-18.768zM179.259 57.54l7.394 18.768 8.662-19.73 11.548-2.407-10.586-7.699z"/><path fill="#c3a39f" d="M161.146 45.028h35.131l-10.393 13.066-12.718-1.997zM151.697 84.125l3.916 16.898V85.668l11.736-8.482zM188.292 76.952L201 85.108l1.51 14.517 1.5-16.5zM146.709 55.134l-.481 2.406 6.255.962zM210.232 57.54l7.22-2.887 1.444 2.887z"/><path fill="#eedcda" d="M169.328 76.308l2.78-9.433.901-11.741 10.536.422.701 12.007 2.407 8.745-7.7 1.444z"/><path fill="#9e7f79" d="M178.953 82.564l-9.625-6.256h17.325zM158.258 90.745l40.426-.481-6.376 14.461-30.681.458z"/><path fill="#fff" d="M162.003 93.032l1.308 5.172 28.749-.676 2.291-5.098z"/><path fill="#e2c6c3" d="M240.07 57.909l-6.736 25.987 10.909 4.575 11.228-23.343z"/><path fill="#9e7f79" d="M243.439 65.608l-2.406 9.144 8.662-6.737z"/><path fill="#738d56" d="M165.866 130.095l-5.682 6.737 10.106 27.432 17.806-16.844z"/><path fill="#5a753d" d="M225.151 128.17l-37.055 19.25 20.693 16.844 22.231-31.399z"/><circle cx="160.802" cy="59.828" r="3.731" fill="#2b2b2b"/><circle cx="196.277" cy="59.828" r="3.731" fill="#2b2b2b"/><g fill="#8b8a8a"><path d="M173.166 51.781l-12.02-6.753-9.384 4.571 1.203 2.648 8.422-2.889 11.622 5.776zM196.277 45.028L183.545 52v3.556l12.25-7.16 11.069 5.775 1.925-3.369z"/></g><path d="M159.885 35s14.375-2.875 14.875-2.875 11.375-.75 11.375-.75l-11.75-1.748-14.5 5.373zM186.134 36l10.709.208 12.542 3.417-11.625-5.5z" fill="#c3a39f"/></g><path opacity=".15" fill-rule="evenodd" clip-rule="evenodd" fill="#070908" d="M42.153-91.839L-46.9-109.88l97.997-21.971 92.398 22.949z"/><path fill-rule="evenodd" clip-rule="evenodd" fill="#424242" d="M27.983-122.835l-.773 12.755-10.685 2.54-32.539-.144-4.28-1.658 20.123-17.069h13.948z"/><path fill-rule="evenodd" clip-rule="evenodd" fill="#7d7c7d" d="M-10.161-214.323l9.99 87.912 11.985 1.525 3.313-5.096 25.516-78.383-12-15.811-15.4 12.367z"/><path fill-rule="evenodd" clip-rule="evenodd" fill="#5e5f5f" d="M33.553-200.77l-10.509-8.761-11.23 84.645 16.169 2.051 23.118-63.738z"/><path fill-rule="evenodd" clip-rule="evenodd" fill="#424242" d="M85.976-104.365l2.848-16.843 17.2-3.868 11.728 2.606 7.958 18.972-5.607 1.996-23.43-.316z"/><path fill-rule="evenodd" clip-rule="evenodd" fill="#7d7c7d" d="M82.098-200.016l23.99 73-1.788 5.133-15.476.675-37.723-65.365 5.676-17.719 19.313 1.979z"/><path fill-rule="evenodd" clip-rule="evenodd" fill="#5e5f5f" d="M76.09-202.313l28.21 80.43 13.452-.587-1.347-91.854-19.082-1.576-13.76 4.371z"/><path fill-rule="evenodd" clip-rule="evenodd" fill="#444648" d="M-10.161-214.323l36.775-4.555 89.791 4.554-65.304 27.751z"/><path fill-rule="evenodd" clip-rule="evenodd" fill="#686b6d" d="M-20.287-105.042H27.21v-5.038l-47.566.738zM85.976-99.198h39.735v-4.3l-39.735-.867z"/><path fill-rule="evenodd" clip-rule="evenodd" fill="#6e884a" d="M-4.146-355.569l3.309 31.624-5.743 30.21-31.702-44.437.498-23.482 12.705-10.277z"/><path fill-rule="evenodd" clip-rule="evenodd" fill="#507033" d="M13.901-354.366l-18.047-1.203 2.166 19.491-3.312 13.618-2.891 64.481 1.746 7.134-2.265 4.434-1.459 32.567 36.391-.136 8.844-6.6 6.232-11.819 3.909-105.478-2.681-9.993-16.602 10.348zM104.373-361.103l-2.925 31.483 8.288 33.957 28.021-38.723 9.931-37.305-21.66-3.972z"/><path fill-rule="evenodd" clip-rule="evenodd" fill="#6e884a" d="M104.373-361.103l-19.636 2.77-25.599 24.661-17.325-10.106-4.057 109.406 5.329 14.813 8.917 5.479 64.403-.244-8.809-107.451-5.147-16.228z"/><path fill-rule="evenodd" clip-rule="evenodd" fill="#d8e14d" d="M37.756-234.372L26.23-213.98l10.77-.041 6.085-5.538z"/><path fill-rule="evenodd" clip-rule="evenodd" fill="#b5c436" d="M37.756-234.372L37-214.021l15.002-.059z"/><path fill-rule="evenodd" clip-rule="evenodd" fill="#d8e14d" d="M79.189-283.624l-13.554 31.282 16.681 9.905 2.568-18.808z"/><path fill-rule="evenodd" clip-rule="evenodd" fill="#b5c436" d="M82.316-242.437l-3.127-41.187 16.682 29.195zM56.25-264.854l3.128 15.64 22.938 6.777z"/><path fill-rule="evenodd" clip-rule="evenodd" fill="#d8e14d" d="M103.171-269.546l-20.855 27.109 19.811-8.341zM2.832-282.18l-11.015 24.201 3.315 8.042 7.7 9.145 6.737-20.695z"/><path fill-rule="evenodd" clip-rule="evenodd" fill="#b5c436" d="M2.832-240.792l13.474-12.994L2.832-282.18z"/><path fill-rule="evenodd" clip-rule="evenodd" fill="#d8e14d" d="M23.044-265.818L2.832-240.792l18.287-9.145z"/><path fill-rule="evenodd" clip-rule="evenodd" fill="#b5c436" d="M-8.702-246.411l11.534 5.619-11.015-17.187z"/><path fill-rule="evenodd" clip-rule="evenodd" fill="#d8e14d" d="M26.412-299.023l14.735-26.799 5.237 22.708-6.677 16.135z"/><path fill-rule="evenodd" clip-rule="evenodd" fill="#b5c436" d="M41.147-325.822l-1.44 38.843 14.618-11.081zM20.878-312.738l2.024 18.651 16.805 7.108z"/><path fill-rule="evenodd" clip-rule="evenodd" fill="#d8e14d" d="M62.746-312.257l-23.039 25.278 21.251-7.188zM95.711-333.191l11.885 11.416-3.223-39.328z"/><path fill-rule="evenodd" clip-rule="evenodd" fill="#b5c436" d="M90.177-343.538l.963 15.4 16.456 6.363zM4.516-331.507l-8.662-24.062-1.146 33.109z"/><path fill-rule="evenodd" clip-rule="evenodd" fill="#d8e14d" d="M9.329-328.619l-14.621 6.159 14.139-21.078z"/><path fill-rule="evenodd" clip-rule="evenodd" fill="#6e884a" d="M137.757-334.386l-11.729-41.277 25.715-18.181 12.923 5.25 2.811 10.493z"/><path fill-rule="evenodd" clip-rule="evenodd" fill="#98c166" d="M162.266-401.496l-10.523 7.652 15.734 15.743 9.259-12.291-2.68-9.9z"/><path fill-rule="evenodd" clip-rule="evenodd" fill="#c3a39f" d="M173.473-420.278l-3.772 5.231-.621 18.782 7.656 5.873 16.229-12.218-4.984-14.855z"/><path fill-rule="evenodd" clip-rule="evenodd" fill="#e2c6c3" d="M158.472-425.261l3.794 23.765 6.814 5.231 6.354-8.248-12.056-22.16z"/><path fill-rule="evenodd" clip-rule="evenodd" fill="#507033" d="M-38.282-338.172l13.203-33.759-22.889-18.435-12.574 3.935-3.463 9.66z"/><path fill-rule="evenodd" clip-rule="evenodd" fill="#98c166" d="M-57.277-398.389l9.309 8.023-16.037 13.595-7.756-10.801 3.291-10.603z"/><path fill-rule="evenodd" clip-rule="evenodd" fill="#c3a39f" d="M-66.759-416.745l2.807 5.435-.04 17.936-7.768 5.804-14.397-13.642 5.556-13.717z"/><path fill-rule="evenodd" clip-rule="evenodd" fill="#e2c6c3" d="M-82.711-429.733l15.952 12.988-19.398 15.533-7.451-18.203zM-52.329-420.578l-4.948 22.189-6.715 5.015-6.325-8.154 13.446-20.664z"/><path fill-rule="evenodd" clip-rule="evenodd" fill="#9e7f79" d="M13.351-370.448l4.4 9.826 13.956 14.918 10.106 1.926 14.437-2.887 15.006-12.409 2.8-15.022-15.148 5.172z"/><path fill-rule="evenodd" clip-rule="evenodd" fill="#c3a39f" d="M56.731-363.99l12.035-.279-.946 8.036 6.236-.058 4.812-6.737 14.499-30.147.899-29.781-20.21-50.575.481 54.679z"/><path fill-rule="evenodd" clip-rule="evenodd" fill="#9e7f79" d="M95.711-407.784l-8.661.482 6.317 14.127 4.593-9.552z"/><path fill-rule="evenodd" clip-rule="evenodd" fill="#cdcccb" d="M96.674-473.714l-11.549-.481-8.045 9.624 8.045 40.424 5.802 1.888 18.26-3.811zM-8.516-429.005l7.497-15.353 5.295-20.213v-8.18l-12.917 1.457z"/><path fill-rule="evenodd" clip-rule="evenodd" fill="#dddddc" d="M24.625-477.564l-9.144 10.107-11.55 2.886-12.572-6.723 34.709-18.301 3.369 5.775z"/><path fill-rule="evenodd" clip-rule="evenodd" fill="#eaeceb" d="M61.062-490.557l-34.65.962-1.443 12.031 9.144 2.887 19.25-4.331 9.143-5.293z"/><path fill-rule="evenodd" clip-rule="evenodd" fill="#dddddc" d="M96.674-473.233l-35.612-16.843-7.699 11.549 10.106 9.144 13.611 4.812z"/><path fill-rule="evenodd" clip-rule="evenodd" fill="#e2c6c3" d="M9.329-365.558l47.402 1.568 17.325-29.185 3.024-71.396-23.717-14.437-28.394 1.444L3.072-465.03l-11.588 36.025 1.992 38.639zM93.787-433.289l-6.737 25.987 10.91 4.575 11.227-23.343z"/><path fill-rule="evenodd" clip-rule="evenodd" fill="#9e7f79" d="M97.155-425.59l-2.406 9.144 8.663-6.737z"/><path fill-rule="evenodd" clip-rule="evenodd" fill="#6e884a" d="M17.751-360.622l-3.85 6.256 10.106 27.431 17.806-16.843z"/><path fill-rule="evenodd" clip-rule="evenodd" fill="#507033" d="M78.868-363.028l-37.055 19.25 20.693 16.843 22.231-31.398z"/><path fill="#9e7f79" d="M15.216-400.428l36.094.399-9.553 14.55H23.37z"/><path fill="#fdfdfe" d="M20.301-397.933l26.005.017-2.783 4.294-21.104-.038z"/><path fill="#c3a39f" d="M14.617-413.339l-7.304 12.911 6.105 17.627-10.433-19.666zM53.588-412.659l7.555 9.832-8.634 20.026 3.923-19.114zM32.364-455.948l17.867-3.957 9.952 3.957-12.191-1.079zM29.846-459.905l-15.229-1.678-12.351 6.475 13.37-3.957zM62.701-432.325l5.277-.919.959 3.317zM2.266-430.646h-7.075v2.758z"/><path fill="#8b8a8a" d="M40.638-443.357l14.509-3.957 8.874 3.957-1.32 1.559-7.434-1.679-12.231 3.358zM23.61-442.397l-10.912-3.118-11.272 5.396.84 1.679 11.152-2.878 8.993 2.158z"/><path d="M12.518-443.717L2.266-438.44l10.252 6.855 7.015 17.167s14.709-8.234 15.509-7.115 11.264 7.859 11.264 7.859l6.203-18.731 10.193-9.393-6.875-3.717-12.791 5.396L38-434.563l-2.638 4.637-7.115-5.036-5.836-4.197-9.893-4.558z" fill="#c3a39f"/><path d="M16.735-433.244c0 1.832-1.485 3.318-3.318 3.318-1.832 0-3.318-1.485-3.318-3.318 0-1.832 1.485-3.318 3.318-3.318s3.318 1.486 3.318 3.318zM54.627-433.244c0 1.832-1.485 3.318-3.318 3.318-1.832 0-3.318-1.485-3.318-3.318 0-1.832 1.485-3.318 3.318-3.318s3.318 1.486 3.318 3.318z" fill-rule="evenodd" clip-rule="evenodd" fill="#2b2b2b"/><path d="M32.484-418.895l-12.951 4.477s12.551 6.635 12.951 6.635 13.822-5.891 13.822-5.891l-13.822-5.221z" fill-rule="evenodd" clip-rule="evenodd" fill="#9e7f79"/><path fill-rule="evenodd" clip-rule="evenodd" fill="#eedcda" d="M28.247-434.963l-3.509 11.437-5.205 9.108 26.773.744-5.349-9.218L38-434.563z"/></svg>